<?xml version="1.0" encoding="utf-8"?>
<!-- Svg Vector Icons : http://www.onlinewebfonts.com/icon -->
<!DOCTYPE svg PUBLIC "-//W3C//DTD SVG 1.1//EN" "http://www.w3.org/Graphics/SVG/1.1/DTD/svg11.dtd">
<svg version="1.1" xmlns="http://www.w3.org/2000/svg" xmlns:xlink="http://www.w3.org/1999/xlink" x="0px" y="0px" viewBox="0 0 1000 1000" enable-background="new 0 0 1000 1000" xml:space="preserve">
<metadata> Svg Vector Icons : http://www.onlinewebfonts.com/icon </metadata>
<g><g transform="translate(0.000000,511.000000) scale(0.100000,-0.100000)"><path d="M4551.5,4987.2C3132,4780.7,2027.4,3752.8,1718.8,2352.4c-55.3-253.2-78.7-840.6-42.6-1113.1c102.2-764,498-1619.6,1966.5-4235.2c268.2-481,570.4-1023.7,670.4-1211c100-185.1,215-368.2,255.4-408.6c159.6-155.4,389.5-212.8,604.4-149c180.9,53.2,308.6,178.8,444.8,444.8c61.7,119.2,391.6,730,732.1,1355.7c1162,2130.4,1634.5,3066.8,1843,3658.4c138.3,391.6,187.3,1006.7,114.9,1470.6c-214.9,1402.5-1276.9,2513.4-2664.5,2790.1C5349.6,5012.7,4836.7,5027.6,4551.5,4987.2z M5279.3,3263.3C6286,3069.6,6811.7,1971.5,6334.9,1052.1c-66-129.8-134.1-219.2-261.8-344.8C5877.4,511.5,5698.6,400.9,5456,320c-144.7-46.8-208.6-55.3-436.3-57.4c-302.2-2.1-449.1,29.8-691.7,146.8c-383.1,185.2-691.7,564-798.1,981.1c-51.1,200-55.3,534.2-10.6,725.7C3704.5,2905.8,4487.6,3414.4,5279.3,3263.3z"/></g></g>
</svg>